<svg xmlns="http://www.w3.org/2000/svg" width="137" height="300" viewbox="0 0 137 300" preserveAspectRatio="xMidYMid meet" xmlns:xlink="http://www.w3.org/1999/xlink">
<defs>

  <defs>
    <filter id="shadow1" x="-10%" y="-10%" width="130%" height="130%">
      <feOffset result="offOut" in="SourceAlpha" dx="2" dy="2" />
      <feGaussianBlur result="blurOut" in="offOut" stdDeviation="2.1" />
      <feColorMatrix in="blurOut" result="blurOut" type="matrix"
      values="0 0 0 0   0
              0 0 0 0   0 
              0 0 0 0   0 
              0 0 0 .35  0"/>
      <feBlend in="SourceGraphic" in2="blurOut" mode="normal" />
    </filter>
  </defs>

  <g id="card">
    <rect width="85.6" height="53.98" rx="3" ry="3" stroke-width=".5" stroke="white" filter="url(#shadow1)" />
    <text x="53.5" y="6.5" fill="#FFFFFF" font-family="'Helvetica'" font-weight="bold" font-size="3">Spread the words.</text>
    <g id="EPL_Logo">
      <path fill="#FFFFFF" d="M56.563,44.468h1.31v5.283h-1.311L56.563,44.468z"/>
      <path fill="#FFFFFF" d="M58.535,44.468h1.31v5.283h-1.31L58.535,44.468z"/>
      <path fill="#FFFFFF" d="M60.507,44.468h1.309v5.283h-1.309V44.468z"/>
      <path fill="#FFFFFF" d="M62.478,44.468h1.31v5.283h-1.31V44.468z"/>
      <path fill="#FFFFFF" d="M54.592,44.468h1.31v5.283h-1.31V44.468z"/>
      <path fill="#FFFFFF" d="M65.853,48.616c0.02,0.458,0.244,0.666,0.645,0.666c0.291,0,0.524-0.178,0.57-0.341h0.635
      c-0.204,0.621-0.636,0.885-1.23,0.885c-0.829,0-1.342-0.57-1.342-1.383c0-0.788,0.543-1.388,1.342-1.388
      c0.894,0,1.326,0.753,1.275,1.561L65.853,48.616L65.853,48.616z M67.026,48.159c-0.066-0.366-0.224-0.56-0.574-0.56
      c-0.458,0-0.59,0.356-0.6,0.561L67.026,48.159L67.026,48.159z M68.175,47.126h0.687v0.335h0.01
      c0.172-0.279,0.458-0.406,0.782-0.406c0.824,0,1.195,0.667,1.195,1.413c0,0.702-0.386,1.358-1.154,1.358
      c-0.315,0-0.615-0.137-0.788-0.396h-0.01v1.25h-0.721L68.175,47.126L68.175,47.126z M70.127,48.448
      c0-0.417-0.168-0.849-0.631-0.849c-0.472,0-0.625,0.422-0.625,0.85c0,0.427,0.163,0.833,0.63,0.833
      C69.974,49.283,70.127,48.876,70.127,48.448L70.127,48.448z M71.301,46.126h0.721v3.628h-0.721V46.126z M72.622,48.972h0.798
      v0.783h-0.798V48.972L72.622,48.972z M75.793,48.052c-0.046-0.294-0.234-0.453-0.534-0.453c-0.462,0-0.616,0.468-0.616,0.854
      c0,0.376,0.148,0.829,0.601,0.829c0.334,0,0.528-0.213,0.574-0.533h0.696c-0.091,0.696-0.574,1.078-1.266,1.078
      c-0.792,0-1.327-0.56-1.327-1.348c0-0.818,0.488-1.422,1.342-1.422c0.621,0,1.189,0.326,1.235,0.996h-0.707H75.793z
       M76.891,47.935c0.041-0.676,0.646-0.879,1.235-0.879c0.523,0,1.153,0.118,1.153,0.748v1.368c0,0.239,0.026,0.478,0.092,0.584
      h-0.732c-0.026-0.081-0.045-0.167-0.05-0.254c-0.229,0.239-0.564,0.326-0.885,0.326c-0.499,0-0.894-0.25-0.894-0.789
      c0-0.594,0.447-0.737,0.894-0.797c0.442-0.066,0.854-0.051,0.854-0.346c0-0.311-0.214-0.356-0.468-0.356
      c-0.275,0-0.453,0.112-0.478,0.397h-0.722l0,0L76.891,47.935z M78.558,48.468c-0.122,0.107-0.376,0.112-0.6,0.153
      c-0.225,0.046-0.428,0.122-0.428,0.386c0,0.271,0.208,0.336,0.442,0.336c0.564,0,0.585-0.447,0.585-0.604L78.558,48.468
      L78.558,48.468z"/>
      <text x="21" y="49.5" fill="#FFFFFF" font-family="Helvetica" font-size="2.15">EDMONTON PUBLIC LIBRARY</text>
    </g>
  </g>

</defs>

<!-- I could make all these guys animate in with Greensock -->
<!-- Purple -->
<g transform="rotate(-10, 6, 80)">
<use x="5" y="74" fill="#7C4199" xlink:href="#card" />
<text x="12" y="97.5" fill="#FFFFFF" font-family="'Helvetica'" font-weight="bold" font-size="8.5"><tspan>This card makes</tspan><tspan x="13" dy="10">you smart.</tspan></text>
</g>
<!-- Green -->
<g transform="rotate(15, 50, 10)">
  <use x="48" y="4" fill="#7BC143" xlink:href="#card" />
  <text x="55" y="27.5" fill="#FFFFFF" font-family="'Helvetica'" font-weight="bold" font-size="8.5"><tspan>One card to</tspan><tspan x="55" dy="10">rule them all.</tspan></text>
</g>

<!-- Magenta -->
<g transform="rotate(14, 35, 238)">
<use x="35" y="221" fill="#E40E62" xlink:href="#card" />
<text x="42" y="243.5" fill="#FFFFFF" font-family="'Helvetica'" font-weight="bold" font-size="8.5"><tspan>I'm happy and</tspan><tspan x="42" dy="10">I know it.</tspan></text>
</g>

<!-- Black -->
<g transform="rotate(-7, 5, 208)">
<use x="5" y="188" xlink:href="#card"  />
<text x="12" y="211.5" fill="#FFFFFF" font-family="'Helvetica'" font-weight="bold" font-size="8.5"><tspan>Library card.</tspan></text>
</g>

<!-- Yellow -->
<g transform="rotate(3, 35, 121)">
<use x="35" y="115" fill="#FDBB30" xlink:href="#card" />
<text x="42" y="138.5" fill="#FFFFFF" font-family="'Helvetica'" font-weight="bold" font-size="8.5"><tspan>I'm an</tspan><tspan x="42" dy="10">Information Ninja.</tspan></text>
</g>

</svg>